<svg xmlns="http://www.w3.org/2000/svg" viewBox="0 0 29.077 25.88">
  <defs>
    <style>
      .cls-1 {
        fill: #363636;
      }
    </style>
  </defs>
  <g id="Asset_5cart" data-name="Asset 5cart" transform="translate(-0.003 0)">
    <g id="Calque_2" data-name="Calque 2" transform="translate(0.003 0)">
      <path id="Path_152" data-name="Path 152" class="cls-1" d="M14.3,21.155a.977.977,0,0,1-.933-.693L9.2,6.755a.98.98,0,0,1,.938-1.265H32.786a.977.977,0,0,1,.977.977V17.209a.977.977,0,0,1-.825.977L14.45,21.145ZM11.451,7.443l3.54,11.636,16.817-2.715V7.443Zm21.334,9.766Z" transform="translate(-4.685 -2.809)"/>
      <path id="Path_153" data-name="Path 153" class="cls-1" d="M24.407,45.325a3.662,3.662,0,1,1,3.657-3.657,3.662,3.662,0,0,1-3.657,3.657Zm0-5.371a1.709,1.709,0,1,0,1.7,1.709,1.709,1.709,0,0,0-1.7-1.709Z" transform="translate(-10.614 -19.444)"/>
      <path id="Path_154" data-name="Path 154" class="cls-1" d="M46.377,45.325a3.662,3.662,0,1,1,3.657-3.657,3.662,3.662,0,0,1-3.657,3.657Zm0-5.371a1.709,1.709,0,1,0,1.7,1.709,1.709,1.709,0,0,0-1.7-1.709Z" transform="translate(-21.856 -19.444)"/>
      <path id="Path_155" data-name="Path 155" class="cls-1" d="M5.559,5a.977.977,0,0,1-.928-.669L3.981,2.373,1.418,3.638A.977.977,0,1,1,.544,1.89L4.118.1A.977.977,0,0,1,5.48.669L6.486,3.716A.977.977,0,0,1,5.559,5Z" transform="translate(-0.003 0)"/>
    </g>
  </g>
</svg>
