<svg id="Asset_2arrow_r" data-name="Asset 2arrow_r" xmlns="http://www.w3.org/2000/svg" width="7.775" height="14.584" viewBox="0 0 7.775 14.584">
  <g id="Calque_2" data-name="Calque 2" transform="translate(0 0)">
    <path id="Path_52" data-name="Path 52" d="M150.493-664.214a.486.486,0,0,1-.343-.143.486.486,0,0,1,0-.686l6.807-6.807a.486.486,0,0,1,.686,0,.486.486,0,0,1,0,.686l-6.807,6.807A.486.486,0,0,1,150.493-664.214Z" transform="translate(-150.008 678.799)" fill="#0079ba"/>
    <path id="Path_53" data-name="Path 53" d="M157.3-692.214a.487.487,0,0,1-.343-.143l-6.807-6.807a.486.486,0,0,1,0-.686.486.486,0,0,1,.686,0l6.807,6.807a.486.486,0,0,1,0,.685A.487.487,0,0,1,157.3-692.214Z" transform="translate(-150.008 699.992)" fill="#0079ba"/>
  </g>
</svg>
