<svg xmlns="http://www.w3.org/2000/svg" viewBox="0 0 50.519 37.485">
  <defs>
    <style>
      .cls-1 {
        fill: #dbe5ec;
      }
    </style>
  </defs>
  <g id="Asset_5delivery" data-name="Asset 5delivery" transform="translate(0 0)">
    <g id="Calque_2" data-name="Calque 2" transform="translate(0 0)">
      <path id="Path_470" data-name="Path 470" class="cls-1" d="M50.519,14.435a1.684,1.684,0,0,0-.842-1.465L38.638,6.664a1.684,1.684,0,0,0-1.078-.2l-5.1.733V1.679A1.684,1.684,0,0,0,30.488,0L1.4,5.047A1.684,1.684,0,0,0,0,6.731v26.1a1.684,1.684,0,0,0,.539,1.179,1.684,1.684,0,0,0,1.288.6h.295l4.614-.842a6.694,6.694,0,0,0,12.63-2.231L33.923,29.01a6.694,6.694,0,0,0,12.5-2.24l2.711-.48h0a1.886,1.886,0,0,0,.312-.084h0a1.456,1.456,0,0,0,.278-.143h0a1.76,1.76,0,0,0,.244-.194h0a1.356,1.356,0,0,0,.2-.236h0a1.8,1.8,0,0,0,.143-.253h0a1.44,1.44,0,0,0,.076-.227V25.07a1.348,1.348,0,0,0,0-.194.843.843,0,0,0,0-.143v-10.3ZM37.468,9.88l9.683,5.532v7.814l-1.078.185A6.736,6.736,0,0,0,33.107,25.7l-.648.109V10.6Zm-24.746,14.2a6.736,6.736,0,0,0-6.685,6.4l-2.669.463V23.714L29.09,19.176v7.233L18.9,28.2a6.736,6.736,0,0,0-6.18-4.126ZM29.09,3.675V15.757L3.368,20.3V8.112ZM12.722,34.1a3.368,3.368,0,1,1,3.326-3.368A3.368,3.368,0,0,1,12.722,34.1Zm27.087-5.052a3.343,3.343,0,1,1,0,.034Z" transform="translate(0 0.029)"/>
    </g>
  </g>
</svg>
