<svg xmlns="http://www.w3.org/2000/svg" viewBox="0 0 33.617 35.634">
  <defs>
    <style>
      .cls-1 {
        opacity: 0.883;
      }

      .cls-2 {
        fill: #fff;
      }
    </style>
  </defs>
  <g id="Asset_6return" data-name="Asset 6return" class="cls-1" transform="translate(0 0)">
    <g id="Calque_2" data-name="Calque 2" transform="translate(0 0)">
      <path id="Path_6" data-name="Path 6" class="cls-2" d="M2.375,12.217A1.782,1.782,0,0,1,4.05,10.364c.742-.107,10.293-1.942,15.234-2.886v4.995a1.188,1.188,0,0,0,1.877.968L31.768,5.863a1.194,1.194,0,0,0-.291-2.091L20.858.066a1.188,1.188,0,0,0-1.574,1.123V5.055C12.062,6.445,4.306,7.929,3.712,8.024A4.157,4.157,0,0,0,0,12.217V28.4H2.375ZM21.66,2.863l6.848,2.393L21.66,10.162Z" transform="translate(0.001 -0.001)"/>
      <path id="Path_7" data-name="Path 7" class="cls-2" d="M32.164,12.19V28.368a1.782,1.782,0,0,1-1.675,1.853c-.944.137-10.405,1.96-15.234,2.886V28.113a1.188,1.188,0,0,0-1.859-.962L2.772,34.729a1.188,1.188,0,0,0,.3,2.085L13.676,40.52a1.289,1.289,0,0,0,.392.065A1.187,1.187,0,0,0,15.256,39.4V35.531c7.091-1.372,14.806-2.845,15.567-2.97a4.157,4.157,0,0,0,3.718-4.2V12.19ZM12.88,37.728,6.014,35.353l6.866-4.906Z" transform="translate(-0.924 -4.951)"/>
    </g>
  </g>
</svg>
