<svg xmlns="http://www.w3.org/2000/svg" width="25" height="21.428" viewBox="0 0 25 21.428"><defs><style>.a{fill:#707070;}</style></defs><g transform="translate(27 -4) rotate(90)"><path class="a" d="M21.857,19.7a2.68,2.68,0,0,1,0-5.052V2.893a.893.893,0,1,1,1.786,0v11.76a2.68,2.68,0,0,1,0,5.052v6.4a.893.893,0,0,1-1.786,0ZM5.786,17.026a2.68,2.68,0,0,1,0-5.052V2.893a.893.893,0,0,1,1.786,0v9.081a2.68,2.68,0,0,1,0,5.052v9.081a.893.893,0,0,1-1.786,0Zm8.036-5.357a2.68,2.68,0,0,1,0-5.052V2.893a.893.893,0,0,1,1.786,0V6.617a2.68,2.68,0,0,1,0,5.052V26.107a.893.893,0,0,1-1.786,0Zm.893-1.633a.893.893,0,1,0-.893-.893A.893.893,0,0,0,14.714,10.036ZM6.679,15.393a.893.893,0,1,0-.893-.893A.893.893,0,0,0,6.679,15.393ZM22.75,18.071a.893.893,0,1,0-.893-.893A.893.893,0,0,0,22.75,18.071Z"/></g></svg>