<svg xmlns="http://www.w3.org/2000/svg" viewBox="0 0 29.761 28.395">
  <defs>
    <style>
      .cls-1 {
        fill: #717677;
      }
    </style>
  </defs>
  <g id="Asset_3filter" data-name="Asset 3filter" transform="translate(0 0)">
    <g id="Calque_2" data-name="Calque 2" transform="translate(0 0)">
      <path id="Path_63" data-name="Path 63" class="cls-1" d="M29.663.57a.992.992,0,0,0-.9-.57H.99A.992.992,0,0,0,.226,1.627L10.91,14.552V27.4a.992.992,0,0,0,.992.992.863.863,0,0,0,.223-.03L18.047,27a.992.992,0,0,0,.8-.967V14.552L29.529,1.627A.992.992,0,0,0,29.663.57ZM17.075,13.565l-.03.04a.5.5,0,0,0-.055.084.278.278,0,0,0-.045.084.5.5,0,0,0-.04.089l-.03.094v.089a.739.739,0,0,0,0,.1.139.139,0,0,0,0,.045v11.05l-3.983.908V14.195a.139.139,0,0,0,0-.045.739.739,0,0,0,0-.1v-.089l-.045-.069a.5.5,0,0,0-.04-.089.278.278,0,0,0-.045-.084.5.5,0,0,0-.055-.084.119.119,0,0,0-.03-.04L3.1,1.984H26.657Z" transform="translate(0.003 0)"/>
    </g>
  </g>
</svg>
