<svg xmlns="http://www.w3.org/2000/svg" viewBox="0 0 315.591 48.294">
  <defs>
    <style>
      .cls-1 {
        opacity: 0.616;
      }

      .cls-2 {
        fill: #fff;
      }
    </style>
  </defs>
  <g id="Asset_1logodec" data-name="Asset 1logodec" class="cls-1" transform="translate(0 -18)">
    <g id="Layer_1" data-name="Layer 1" transform="translate(0 18)">
      <path id="Path_85" data-name="Path 85" class="cls-2" d="M77,1.79h26.5V11.98l-14.579.011v7.568l12.622-.011V29.5l-12.622.022v8.39H103.5V48.063H77Z" transform="translate(-35.376 -0.822)"/>
      <path id="Path_86" data-name="Path 86" class="cls-2" d="M180.086,1S164.75,27.092,163.258,29.444c-1.751,2.768-5.557,7.146-11.314,7.071-9.374-.141-12.893-6.617-12.893-12.433a12.433,12.433,0,0,1,12.157-12.433c7.784-.157,13.574,7.3,13.574,7.3l6.087-9.806A24.784,24.784,0,0,0,151.322.075C132.256.5,126.71,16.47,126.71,23.86c0,15.585,12,23.369,21.8,24.326a26.1,26.1,0,0,0,21.834-7.844s-.1,0,.384-.038c2.849-.032,10.357.038,10.357.038v6.93h11.465V1Zm1.227,29.65h-6.141l6.141-10.482Z" transform="translate(-58.214 -0.031)"/>
      <path id="Path_87" data-name="Path 87" class="cls-2" d="M262.355,48.076V12.826H253.1V1.76h30.407V12.826h-9.238V48.076Z" transform="translate(-116.281 -0.809)"/>
      <path id="Path_88" data-name="Path 88" class="cls-2" d="M338.084,30.371h-12.26V48.085h-11.9V1.78h11.9V19.365h12.26V1.78h11.909V48.085H338.084Z" transform="translate(-144.224 -0.818)"/>
      <path id="Path_89" data-name="Path 89" class="cls-2" d="M387.38,48.095V1.8h11.844V37.867h13.9V48.095Z" transform="translate(-177.973 -0.827)"/>
      <path id="Path_90" data-name="Path 90" class="cls-2" d="M445.714,36.726c6.746,0,12.228-5.362,12.228-12.974a12.291,12.291,0,1,0-24.583,0c0,7.336,5.879,12.974,12.355,12.974M428.67,6.811a24.4,24.4,0,0,1,33.894.065,23.445,23.445,0,0,1,7.265,16.958,24,24,0,0,1-24.115,24.428A23.36,23.36,0,0,1,428.2,40.916a24.1,24.1,0,0,1-6.66-17.271,23.212,23.212,0,0,1,7.13-16.833" transform="translate(-193.667 0)"/>
      <path id="Path_91" data-name="Path 91" class="cls-2" d="M508.88,48.09V1.79h10.736l17.866,25.715V1.79h11.9v46.3H538.92L520.773,22.3V48.09Z" transform="translate(-233.794 -0.822)"/>
      <path id="Path_92" data-name="Path 92" class="cls-2" d="M30.126,24.781c0-8.336-4.73-13.033-13.482-13.033H11.893V37.922H16.7c9.114,0,13.422-4.027,13.422-13.141M0,48.09V1.79H16.644c7.736,0,13.141.973,18.212,5.519,4.644,4.168,7.109,10.222,7.109,17.839,0,7.027-2.395,12.822-7.027,17.19-5.195,4.811-9.784,5.73-16.633,5.73Z" transform="translate(0 -0.822)"/>
    </g>
  </g>
</svg>
