<svg xmlns="http://www.w3.org/2000/svg" width="37.018" height="35.329" viewBox="0 0 37.018 35.329"><defs><style>.a{fill:#ec6607;}.b{fill:#0082c3;}</style></defs><g transform="translate(0 0)"><path class="a" d="M31.435,23.609l-7.549-4.844a1.276,1.276,0,0,0-1.966,1.072v9.694a1.276,1.276,0,0,0,.638,1.117,1.238,1.238,0,0,0,.638.16,1.276,1.276,0,0,0,.689-.2l7.537-4.844a1.276,1.276,0,0,0,0-2.151Zm-6.95,3.58V22.173l3.9,2.508Z" transform="translate(-7.931 -6.753)"/><path class="b" d="M37.013,1.016V.952a1.04,1.04,0,0,0-.07-.2l-.1-.1a.861.861,0,0,0-.1-.166l-.07-.051C36.637.4,36.6.358,36.56.32h0l-.1-.064a.829.829,0,0,0-.147-.1.485.485,0,0,0-.1-.038L36.062.058h-.14a.849.849,0,0,0-.134,0h-.147a.874.874,0,0,0-.121,0L1.059,5.981A1.276,1.276,0,0,0,0,7.257V34.142a1.34,1.34,0,0,0,.032.274v.064a1.04,1.04,0,0,0,.07.2l.045.07a.861.861,0,0,0,.1.166l.07.077a1.148,1.148,0,0,0,.121.128h0l.1.064.108.064a.708.708,0,0,0,.121.057l.077.038.147.038h.064a1.321,1.321,0,0,0,.223,0,1.276,1.276,0,0,0,.217,0l34.461-5.922a1.276,1.276,0,0,0,1.059-1.276V1.3a1.354,1.354,0,0,0,.006-.281ZM2.553,28.507l4.033-.766v4.091L2.553,32.6Zm0-13.369,4.033-.772v4.091l-4.033.766Zm0,6.688,4.033-.747V25.17l-4.033.74ZM6.586,7.678v4.084l-4.033.779V8.45ZM9.138,26.185V7.161L27.875,3.97v24.3L9.138,31.462Zm25.322-5.89-4.033.785v-4.1l4.033-.766Zm0-13.369-4.033.753V3.607l4.033-.772Zm0,6.688-4.033.766V10.288l4.033-.766Zm0,13.4-4.033.772V23.664L34.46,22.9Z" transform="translate(0 -0.056)"/></g></svg>