<svg xmlns="http://www.w3.org/2000/svg" viewBox="0 0 38.447 38.914">
  <defs>
    <style>
      .cls-1 {
        opacity: 0.883;
      }

      .cls-2 {
        fill: #fff;
      }
    </style>
  </defs>
  <g id="Asset_7store" data-name="Asset 7store" class="cls-1" transform="translate(0 0)">
    <g id="Calque_2" data-name="Calque 2" transform="translate(0)">
      <path id="Path_8" data-name="Path 8" class="cls-2" d="M187.152-687.023h-4.691v-2.643a.548.548,0,0,0,.04-.139.125.125,0,0,0,0-.053,1.867,1.867,0,0,0,0-.192v-.178a1.906,1.906,0,0,0-.059-.265v-.046a1.238,1.238,0,0,0-.159-.291h0l-6.607-8.589a1.321,1.321,0,0,0-1.051-.522h-16.67a1.321,1.321,0,0,0-1.051.522l-6.607,8.589h0a1.239,1.239,0,0,0-.159.291v.046a1.911,1.911,0,0,0-.059.265v23.455a1.321,1.321,0,0,0,1.321,1.321h13.934v3.1a1.321,1.321,0,0,0,.476,1.011,1.321,1.321,0,0,0,.846.31,1.342,1.342,0,0,0,.231,0L187.43-664.6a1.321,1.321,0,0,0,1.1-1.321V-685.7a1.321,1.321,0,0,0-.4-.958A1.321,1.321,0,0,0,187.152-687.023Zm-13.181-10.314,4.559,5.946H167.6v-5.946Zm-15.355,0h6.369v5.946H154.024ZM152.67-668.1v-20.647h27.148v1.711H166.6a1.322,1.322,0,0,0-1.321,1.321v17.6Zm26.164,2.279-3.9.661V-670.9h3.9Zm7-1.216-4.354.753v-5.946a1.322,1.322,0,0,0-1.321-1.321h-6.548a1.321,1.321,0,0,0-1.321,1.321v7.512l-4.361.76V-684.44h17.905Z" transform="translate(-150.08 699.94)"/>
      <rect id="Rectangle_7" data-name="Rectangle 7" class="cls-2" width="15.196" height="3.779" transform="translate(19.2 16.762)"/>
    </g>
  </g>
</svg>
