<svg xmlns="http://www.w3.org/2000/svg" viewBox="0 0 30.707 35.922">
  <defs>
    <style>
      .cls-1 {
        fill: #fff;
      }
    </style>
  </defs>
  <g id="Asset_11warranty" data-name="Asset 11warranty" transform="translate(0 0)">
    <g id="Calque_2" data-name="Calque 2" transform="translate(0 0)">
      <path id="Path_471" data-name="Path 471" class="cls-1" d="M15.35,35.921C12.644,35.921,0,28.539,0,7.639A1.2,1.2,0,0,1,.922,6.471c.1,0,10.124-2.449,13.56-6.113a1.233,1.233,0,0,1,1.742,0c3.442,3.67,13.459,6.089,13.56,6.113a1.2,1.2,0,0,1,.922,1.167C30.707,28.539,18.063,35.921,15.35,35.921ZM2.395,8.567c.353,18.673,11.118,24.6,12.956,24.959,1.844-.359,12.608-6.286,12.95-24.959C25.81,7.9,18.99,5.872,15.35,2.819,11.716,5.872,4.9,7.9,2.395,8.567Z" transform="translate(0 0.002)"/>
      <path id="Path_472" data-name="Path 472" class="cls-1" d="M20.264,30.329h0a1.2,1.2,0,0,1-.844-.347l-4.1-4.077a1.2,1.2,0,1,1,1.694-1.694l3.245,3.245,7.3-7.31a1.2,1.2,0,1,1,1.694,1.694l-8.142,8.142a1.2,1.2,0,0,1-.85.347Z" transform="translate(-6.009 -7.942)"/>
    </g>
  </g>
</svg>
